<svg xmlns="http://www.w3.org/2000/svg" viewBox="0 0 48 32" width="48" height="32">
  <rect width="48" height="32" rx="4" fill="#006FCF"/>
  <path d="M18.5 11.5h-3l-1.8 9h3l1.8-9zm10.8 5.8l1.3-3.5.7 3.5h-2zm2.7 3.2h2.2l-1.9-9h-2.1c-.5 0-.9.3-1 .7l-3.5 8.3h2.5l.5-1.4h3.2l.3 1.4zm-6.3-3c0-2.3-3.2-2.5-3.2-3.5 0-.3.3-.7 1-.7.5-.1 1.4.1 2.1.4l.4-1.8c-.5-.2-1.2-.4-2-.4-2.1 0-3.6 1.1-3.6 2.7 0 1.2 1.1 1.9 1.9 2.3.8.4 1.1.7 1.1 1 0 .5-.6.7-1.2.7-1 0-1.6-.2-2.4-.5l-.4 1.9c.5.2 1.6.5 2.6.5 2.3 0 3.7-1.1 3.7-2.6zm-9.1-6h-3.9l-.1.3c2.8.7 4.7 2.5 5.5 4.6l-.7-3.8c-.2-.6-.5-1-.8-1.1z" fill="white"/>
</svg>
