<svg xmlns="http://www.w3.org/2000/svg" viewBox="0 0 48 32" width="48" height="32">
  <rect width="48" height="32" rx="4" fill="#003087"/>
  <path d="M17.5 10.5c-.9 0-1.7.1-2.4.3-.7.2-1.3.5-1.8.9-.5.4-.9.9-1.1 1.4-.3.6-.4 1.2-.4 1.9 0 .7.1 1.3.4 1.8.3.5.6 1 1.1 1.4.5.4 1.1.7 1.8.9.7.2 1.5.3 2.4.3h.8v2.1h-1.9c-1.1 0-2.1-.2-3-.5-.9-.3-1.6-.8-2.2-1.4-.6-.6-1-1.3-1.3-2.1-.3-.8-.4-1.7-.4-2.6 0-.9.1-1.8.4-2.6.3-.8.7-1.5 1.3-2.1.6-.6 1.3-1.1 2.2-1.4.9-.3 1.9-.5 3-.5h1.9v2.1h-.8zm13.3 0c.9 0 1.7.1 2.4.3.7.2 1.3.5 1.8.9.5.4.9.9 1.1 1.4.3.6.4 1.2.4 1.9 0 .7-.1 1.3-.4 1.8-.3.5-.6 1-1.1 1.4-.5.4-1.1.7-1.8.9-.7.2-1.5.3-2.4.3h-.8v2.1h1.9c1.1 0 2.1-.2 3-.5.9-.3 1.6-.8 2.2-1.4.6-.6 1-1.3 1.3-2.1.3-.8.4-1.7.4-2.6 0-.9-.1-1.8-.4-2.6-.3-.8-.7-1.5-1.3-2.1-.6-.6-1.3-1.1-2.2-1.4-.9-.3-1.9-.5-3-.5h-1.9v2.1h.8z" fill="#009CDE"/>
  <path d="M24 12.5c-2.2 0-4 1.8-4 4s1.8 4 4 4 4-1.8 4-4-1.8-4-4-4zm0 6.5c-1.4 0-2.5-1.1-2.5-2.5s1.1-2.5 2.5-2.5 2.5 1.1 2.5 2.5-1.1 2.5-2.5 2.5z" fill="#009CDE"/>
</svg>
