<svg xmlns="http://www.w3.org/2000/svg" viewBox="0 0 48 32" width="48" height="32">
  <rect width="48" height="32" rx="4" fill="#32BCAD"/>
  <path d="M18.3 19.8c0-.2.1-.3.2-.3h1.7c.1 0 .2.1.2.3v.8c0 .2-.1.3-.2.3h-1.7c-.1 0-.2-.1-.2-.3v-.8zm3.3 0c0-.2.1-.3.2-.3h1.7c.1 0 .2.1.2.3v.8c0 .2-.1.3-.2.3h-1.7c-.1 0-.2-.1-.2-.3v-.8zm3.3 0c0-.2.1-.3.2-.3h1.7c.1 0 .2.1.2.3v.8c0 .2-.1.3-.2.3h-1.7c-.1 0-.2-.1-.2-.3v-.8zm3.3 0c0-.2.1-.3.2-.3h1.7c.1 0 .2.1.2.3v.8c0 .2-.1.3-.2.3h-1.7c-.1 0-.2-.1-.2-.3v-.8zm-13.1-3.1c.8 0 1.4-.2 1.8-.7.4-.5.6-1.1.6-1.9 0-.8-.2-1.4-.6-1.9-.4-.5-1-.7-1.8-.7h-2.9c-.1 0-.2.1-.2.3v4.6c0 .2.1.3.2.3h2.9zm1.2-2.6c0 .5-.1.9-.4 1.1-.3.3-.7.4-1.2.4h-1.4v-3h1.4c.5 0 .9.1 1.2.4.3.2.4.6.4 1.1zm3.9 2.6c.1 0 .2-.1.2-.3v-4.6c0-.2-.1-.3-.2-.3h-1.5c-.1 0-.2.1-.2.3v4.6c0 .2.1.3.2.3h1.5zm4.5 0c.1 0 .2-.1.2-.2l1.3-2.3c.1-.1.2-.2.3-.2.1 0 .2.1.2.2l1.3 2.3c.1.1.1.2.2.2h1.7c.2 0 .3-.2.2-.4l-2.1-3.4 2.1-1.5c.2-.1.1-.4-.1-.4h-2c-.1 0-.2.1-.3.1l-1.4 1.1c-.1.1-.2.1-.3 0l-.1-.1v-.8c0-.2-.1-.3-.2-.3H23c-.1 0-.2.1-.2.3v4.6c0 .2.1.3.2.3h1.5z" fill="white"/>
  <text x="24" y="26" font-family="Arial, sans-serif" font-size="6" font-weight="bold" fill="white" text-anchor="middle">PIX</text>
</svg>
