<svg xmlns="http://www.w3.org/2000/svg" viewBox="0 0 48 32" width="48" height="32">
  <rect width="48" height="32" rx="4" fill="#1434CB"/>
  <path d="M19.5 10h-3.2l-2 12h3.2l2-12zm7.8 7.8l1.7-4.7.9 4.7h-2.6zm3.5 4.2h2.9l-2.5-12h-2.7c-.6 0-1.1.4-1.3.9l-4.6 11.1h3.4l.7-1.9h4.2l.4 1.9zm-8.3-4c0-3.1-4.3-3.3-4.3-4.7 0-.4.4-.9 1.3-.9.7-.1 1.9.1 2.8.6l.5-2.4c-.7-.3-1.6-.5-2.7-.5-2.8 0-4.8 1.5-4.8 3.6 0 1.6 1.4 2.5 2.5 3 1.1.5 1.5.9 1.5 1.3 0 .7-.8 1-1.6 1-1.3 0-2.1-.2-3.2-.7l-.6 2.5c.7.3 2.1.6 3.5.6 3 .1 5-1.4 5-3.4zm-12.1-8h-5.2l-.1.4c3.8 1 6.3 3.3 7.3 6.1l-1-5.1c-.2-.8-.7-1.3-1-1.4z" fill="white"/>
</svg>
